<svg width="24" height="24" viewBox="0 0 24 24" fill="none" xmlns="http://www.w3.org/2000/svg">
	<path d="M14 15L10 19L14 23" stroke="#222222"/>
	<path d="M18.0622 8.5C18.7138 9.62862 19.0374 10.9167 18.9966 12.2193C18.9557 13.5219 18.5521 14.7872 17.8311 15.8728C17.11 16.9584 16.1003 17.8212 14.9155 18.364C13.7307 18.9067 12.4179 19.108 11.1249 18.9451" stroke="#222222" stroke-linecap="round"/>
	<path d="M10 9L14 5L10 1" stroke="#222222"/>
	<path d="M5.93782 15.5C5.27676 14.355 4.95347 13.0462 5.0054 11.7251C5.05733 10.404 5.48234 9.12457 6.23124 8.03498C6.98013 6.9454 8.02229 6.09019 9.23708 5.56834C10.4519 5.04649 11.7896 4.87934 13.0955 5.08625" stroke="#222222" stroke-linecap="round"/>
	<path fill-rule="evenodd" clip-rule="evenodd" d="M9.67505 19.3393L6.67505 17.1964C5.8539 16.6099 5.44333 16.3167 5.22166 15.8859C5 15.4552 5 14.9506 5 13.9415V10.0585C5 9.73711 5 9.46693 5.00716 9.234L11 13.5146V20.2313C10.6433 20.0309 10.227 19.7335 9.67505 19.3393ZM13 20.2313C13.3567 20.0309 13.773 19.7335 14.325 19.3393L17.325 17.1964C18.1461 16.6099 18.5567 16.3167 18.7783 15.8859C19 15.4552 19 14.9506 19 13.9415V10.0585C19 9.73711 19 9.46693 18.9928 9.234L13 13.5146V20.2313ZM18.1276 7.39426L12 11.7711L5.87244 7.39426C6.08372 7.2259 6.34653 7.03818 6.67505 6.80352L9.67505 4.66067C10.7977 3.85875 11.3591 3.45779 12 3.45779C12.6409 3.45779 13.2023 3.85875 14.325 4.66067L17.325 6.80352C17.6535 7.03818 17.9163 7.2259 18.1276 7.39426Z" fill="#222222"/>
</svg>
