<svg width="24" height="24" viewBox="0 0 24 24" fill="current" xmlns="http://www.w3.org/2000/svg">
<path fill-rule="evenodd" clip-rule="evenodd" d="M2 7C2 4.23858 4.23858 2 7 2H17C19.7614 2 22 4.23858 22 7V17C22 19.7614 19.7614 22 17 22H7C4.23858 22 2 19.7614 2 17V7ZM7 4C5.34315 4 4 5.34315 4 7V17C4 18.6569 5.34315 20 7 20H17C18.6569 20 20 18.6569 20 17V7C20 5.34315 18.6569 4 17 4H7ZM12.7071 8.29289C13.0976 8.68342 13.0976 9.31658 12.7071 9.70711L11.4142 11H15C15.5523 11 16 11.4477 16 12C16 12.5523 15.5523 13 15 13H11.4142L12.7071 14.2929C13.0976 14.6834 13.0976 15.3166 12.7071 15.7071C12.3166 16.0976 11.6834 16.0976 11.2929 15.7071L8.29289 12.7071C7.90237 12.3166 7.90237 11.6834 8.29289 11.2929L11.2929 8.29289C11.6834 7.90237 12.3166 7.90237 12.7071 8.29289Z" fill="#213547"/>
</svg>
