<?xml version="1.0" encoding="utf-8"?>
<svg width="24" height="24" viewBox="0 0 24 24" fill="none" xmlns="http://www.w3.org/2000/svg">
  <g style="" transform="matrix(0.443143, 0, 0, 0.443143, 15.325125, -0.273046)">
    <path d="M14 15L10 19L14 23" stroke="#222222"/>
    <path d="M18.0622 8.5C18.7138 9.62862 19.0374 10.9167 18.9966 12.2193C18.9557 13.5219 18.5521 14.7872 17.8311 15.8728C17.11 16.9584 16.1003 17.8212 14.9155 18.364C13.7307 18.9067 12.4179 19.108 11.1249 18.9451" stroke="#222222" stroke-linecap="round"/>
    <path d="M10 9L14 5L10 1" stroke="#222222"/>
    <path d="M5.93782 15.5C5.27676 14.355 4.95347 13.0462 5.0054 11.7251C5.05733 10.404 5.48234 9.12457 6.23124 8.03498C6.98013 6.9454 8.02229 6.09019 9.23708 5.56834C10.4519 5.04649 11.7896 4.87934 13.0955 5.08625" stroke="#222222" stroke-linecap="round"/>
  </g>
  <path fill-rule="evenodd" clip-rule="evenodd" d="M 9.675 19.495 L 6.675 17.352 C 5.854 16.765 5.443 16.472 5.221 16.041 C 5 15.611 5 15.106 5 14.097 L 5 10.214 C 5 9.893 5 9.622 5.007 9.39 L 11 13.67 L 11 20.387 C 10.643 20.186 10.227 19.889 9.675 19.495 Z M 13 20.387 C 13.356 20.186 13.773 19.889 14.325 19.495 L 17.325 17.352 C 18.146 16.765 18.556 16.472 18.778 16.041 C 19 15.611 19 15.106 19 14.097 L 19 10.214 C 19 9.893 19 9.622 18.993 9.39 L 13 13.67 L 13 20.387 Z M 18.127 7.55 L 12 11.927 L 5.872 7.55 C 6.083 7.381 6.346 7.194 6.675 6.959 L 9.675 4.816 C 10.797 4.014 11.359 3.613 12 3.613 C 12.641 3.613 13.202 4.014 14.325 4.816 L 17.325 6.959 C 17.653 7.194 17.916 7.381 18.127 7.55 Z" fill="#222222"/>
</svg>