<svg width="24" height="24" viewBox="0 0 24 24" fill="none" xmlns="http://www.w3.org/2000/svg">

	<g transform="translate(-2, 2)">
		<path fill-rule="evenodd" clip-rule="evenodd" d="M5.00006 2C4.44778 2 4.00006 2.44772 4.00006 3V5.00001H20.0001V3C20.0001 2.44772 19.5523 2 19.0001 2H5.00006ZM19.7823 7.00001H4.21782C4.33216 7.22455 4.48913 7.42794 4.68305 7.59762L10.6831 12.8476C11.4371 13.5074 12.563 13.5074 13.3171 12.8476L19.3171 7.59762C19.511 7.42794 19.668 7.22455 19.7823 7.00001Z" fill="#222222"/>
		<path fill-rule="evenodd" clip-rule="evenodd" d="M14 16.7049L14 10H10V18.7049L14 16.7049Z" fill="#222222"/>
	</g>
	<!--<path stroke-linecap="round" d="M20 4 4 20" stroke="black" stroke-width="2" />-->
	
	<g transform-origin="center" transform="scale(0.5, 0.5)
	   translate(13, 11)">
		<path d="M12 21C10.8181 21 9.64778 20.7672 8.55585 20.3149C7.46392 19.8626 6.47177 19.1997 5.63604 18.364C4.80031 17.5282 4.13738 16.5361 3.68508 15.4442C3.23279 14.3522 3 13.1819 3 12C3 10.8181 3.23279 9.64778 3.68508 8.55585C4.13738 7.46392 4.80031 6.47177 5.63604 5.63604C6.47177 4.80031 7.46392 4.13738 8.55585 3.68508C9.64778 3.23279 10.8181 3 12 3C13.1819 3 14.3522 3.23279 15.4442 3.68508C16.5361 4.13738 17.5282 4.80031 18.364 5.63604C19.1997 6.47177 19.8626 7.46392 20.3149 8.55585C20.7672 9.64778 21 10.8181 21 12C21 13.1819 20.7672 14.3522 20.3149 15.4442C19.8626 16.5361 19.1997 17.5282 18.364 18.364C17.5282 19.1997 16.5361 19.8626 15.4441 20.3149C14.3522 20.7672 13.1819 21 12 21L12 21Z" stroke="#33363F" stroke-width="2" stroke-linecap="round"/>
		<path d="M9 9L15 15" stroke="#33363F" stroke-width="2" stroke-linecap="round"/>
		<path d="M15 9L9 15" stroke="#33363F" stroke-width="2" stroke-linecap="round"/>
	</g>
	
</svg>
